<svg width="2389" height="629" viewBox="0 0 2389 629" fill="none" xmlns="http://www.w3.org/2000/svg">
<path fill-rule="evenodd" clip-rule="evenodd" d="M278.059 0.425644C276.684 0.658644 270.834 1.92764 265.059 3.24564C259.284 4.56264 244.209 7.94564 231.559 10.7616C206.235 16.3996 172.344 24.1336 141.559 31.3016C130.559 33.8626 119.084 36.5276 116.059 37.2246C107.417 39.2136 38.743 54.6726 26.815 57.3136C10.622 60.8986 4.79601 65.7576 1.57001 78.3686L0 84.5086L0.323013 210.369L0.646011 336.229L2.832 350.229C8.511 386.61 19.085 417.488 35.877 446.729C60.532 489.662 93.273 524.239 140.34 557.051C156.239 568.135 188.76 587.521 205.059 595.631C228.685 607.387 259.91 621.199 272.753 625.576C286.095 630.124 289.355 629.711 312.251 620.573C379.591 593.696 439.628 555.816 482.43 513.2C502.068 493.647 514.5 478.017 527.743 456.229C547.782 423.259 558.636 394.347 566.224 353.729L568.559 341.229V209.229V77.2286L565.453 71.7286C563.381 68.0606 560.868 65.3066 557.908 63.4616C553.469 60.6946 539.115 56.7656 513.559 51.3226C506.959 49.9166 490.984 46.3206 478.059 43.3306C429.084 32.0026 402.196 25.7506 391.559 23.2166C385.509 21.7756 372.909 18.8586 363.559 16.7346C354.209 14.6106 333.734 9.91965 318.059 6.30965C291.836 0.270647 284.946 -0.743356 278.059 0.425644ZM264.559 25.8116C255.759 27.9606 229.884 34.0486 207.059 39.3416C166.537 48.7366 152.841 51.9406 136.559 55.8316C132.159 56.8836 125.859 58.3576 122.559 59.1066C119.259 59.8556 96.759 65.0316 72.559 70.6076C48.359 76.1836 27.596 80.9626 26.42 81.2286C25.243 81.4936 24.035 82.7276 23.736 83.9696C23.436 85.2126 22.883 120.654 22.507 162.729L21.823 239.229L32.691 228.672C60.248 201.902 77.782 192.559 120.809 181.722C123.366 181.078 125.059 180.074 125.059 179.2C125.059 178.401 126.9 172.906 129.15 166.989L133.242 156.23L129.717 143.229C127.779 136.079 125.713 127.559 125.126 124.295C123.642 116.044 123.814 100.24 125.454 94.0787C131.127 72.7707 152.065 59.1156 178.618 59.4056C190.029 59.5296 198.438 61.3726 208.28 65.9036L215 68.9976L220.916 75.1576C224.874 79.2796 227.433 83.0117 228.649 86.4387L230.468 91.5586L238.513 92.6826C252.781 94.6766 263.456 96.7356 267.809 98.3336L272.059 99.8936V103.239V106.584L269.506 108.592C266.274 111.134 254.52 115.064 241.031 118.111L230.559 120.477L230.67 126.02L230.78 131.564L235.477 141.219C238.711 147.867 240.079 151.857 239.867 154.027L239.559 157.179L234.559 159.002C231.809 160.006 229.013 161.543 228.346 162.418C227.679 163.294 226.374 167.434 225.446 171.62C224.519 175.805 222.952 181.119 221.966 183.43L220.172 187.631L216.027 189.745C213.595 190.986 208.992 192.102 204.89 192.446C200.907 192.78 197.287 193.644 196.479 194.452C193.762 197.169 194.812 200.427 199.697 204.429C212.211 214.682 220.781 222.332 222.889 225.134C229.144 233.442 235.571 250.815 243.642 281.229C246.124 290.579 248.388 299.017 248.674 299.979C248.96 300.941 249.857 301.729 250.667 301.729C251.477 301.729 263.484 297.179 277.35 291.617C291.215 286.055 303.117 281.284 303.798 281.014C304.48 280.744 305.498 278.811 306.062 276.718C307.577 271.092 312.055 267.836 328.133 260.667L342.559 254.234L349.559 254.442C353.409 254.556 358.134 254.737 360.059 254.844L363.559 255.038L398.296 240.133C417.401 231.936 433.039 224.912 433.046 224.525C433.06 223.772 428.079 219.978 417.558 212.729C413.965 210.254 410.774 207.272 410.465 206.102C409.934 204.09 417.076 183.827 419.319 180.979C419.861 180.292 421.728 179.729 423.469 179.729H426.634L469.096 208.201C492.451 223.861 513.021 238.047 514.809 239.727C518.489 243.185 518.864 245.513 516.258 248.732L514.457 250.956L506.508 251.788C502.136 252.246 495.184 252.645 491.059 252.674L483.559 252.727L477.119 249.681C473.577 248.005 467.464 244.63 463.535 242.182C459.606 239.733 455.865 237.729 455.222 237.729C454.579 237.729 447.417 240.823 439.306 244.605C431.195 248.387 419.834 253.593 414.059 256.173C404.227 260.566 399.812 262.567 377.964 272.535L369.368 276.457L368.791 284.088C368.393 289.347 367.49 293.042 365.886 295.974L363.559 300.229L355.71 305.229C348.421 309.872 314.696 334.674 295.059 349.833C257.032 379.188 251.255 382.798 241.126 383.531L235.427 383.943L230.131 381.664C223.59 378.851 218.906 373.2 212.525 360.428C209.997 355.369 207.556 350.849 207.1 350.385C206.644 349.921 205.741 352.846 205.094 356.885C204.446 360.924 202.413 372.104 200.576 381.729C198.739 391.354 196.681 402.738 196.003 407.028L194.769 414.827L203.567 433.528C208.407 443.813 222.199 471.804 234.218 495.729L256.071 539.229L257.068 544.729C257.616 547.754 259.396 559.904 261.024 571.729C262.652 583.554 264.365 594.579 264.831 596.229L265.677 599.229L272.618 602.729L279.559 606.229L285.059 606.166L290.559 606.103L302.559 601.016C319.153 593.98 342.475 582.697 362.059 572.229C371.134 567.378 383.037 561.013 388.509 558.083C393.982 555.154 399.108 552.108 399.901 551.315L401.344 549.873L397.779 549.204C395.238 548.728 364.479 549.134 361.309 549.685C361.171 549.709 361.059 550.751 361.059 552.001C361.059 556.677 357.179 568.214 355.017 569.964L352.837 571.729H345.948H339.059L336.961 569.631L334.862 567.532L335.556 558.772L336.249 550.012L330.998 549.315C328.109 548.932 324.52 547.985 323.022 547.21C319.202 545.235 315.321 540.334 314.103 535.948C313.485 533.724 313.068 518.43 313.065 497.903L313.059 463.578L310.357 461.403C302.872 455.38 298.196 449.712 296.087 444.106L293.876 438.229L294.232 427.729L294.587 417.229L298.152 410.729C302.23 403.293 308.737 397.726 316.559 394.983L321.559 393.229H346.757H371.954L372.568 386.729C375.724 353.312 379.976 340.644 392.036 328.729C398.856 321.992 409.877 316.241 419.941 314.168L427.323 312.647L480.441 312.97L533.559 313.293L538.559 314.919C541.309 315.814 544.572 316.864 545.809 317.254L548.059 317.962V206.992C548.059 145.959 547.766 93.2186 547.408 89.7936L546.757 83.5646L544.395 82.6666C543.096 82.1726 520.777 76.8296 494.796 70.7926C439.941 58.0456 372.738 42.1566 306.559 26.2856C296.109 23.7796 285.984 21.7686 284.059 21.8166C282.134 21.8646 273.359 23.6626 264.559 25.8116ZM433.781 110.229C433.466 111.329 432.926 113.639 432.58 115.362C431.722 119.637 426.047 126.012 421.394 127.926C419.285 128.793 416.434 129.956 415.059 130.51L412.559 131.517L414.059 132.009C414.884 132.279 417.411 133.002 419.674 133.614C421.937 134.227 425.031 135.705 426.549 136.9C429.551 139.261 433.002 145.921 433.037 149.42C433.08 153.755 434.913 152.638 435.989 147.62C436.593 144.803 438.019 141.19 439.157 139.591C441.514 136.282 447.894 132.68 453.059 131.743L456.559 131.108L450.743 129.371C447.377 128.366 443.447 126.279 441.416 124.417L437.905 121.2L436.129 114.715L434.354 108.229L433.781 110.229ZM372.799 122.479C370.621 132.167 366.378 141.256 361.982 145.652C358.053 149.581 349.825 153.689 340.581 156.336C336.994 157.364 334.059 158.458 334.059 158.769C334.059 159.08 337.195 160.314 341.027 161.512C361.244 167.828 369.455 176.476 373.279 195.479C373.86 198.366 374.651 200.729 375.038 200.729C375.424 200.729 376.281 198.315 376.941 195.364C378.939 186.437 384.233 176.626 389.602 171.9C394.933 167.208 404.019 162.512 411.309 160.683C413.921 160.028 416.059 159.202 416.059 158.848C416.059 158.494 413.168 157.376 409.635 156.364C400.095 153.632 393.72 150.379 388.53 145.596C381.902 139.486 379.021 132.94 376.597 118.479C376.251 116.417 375.647 114.729 375.255 114.729C374.862 114.729 373.757 118.217 372.799 122.479ZM189.672 126.505C185.725 134.296 183.027 134.598 174.275 128.229C168.045 123.696 164.649 122.808 161.004 124.759C156.419 127.213 154.545 136.547 157.074 144.338C158.949 150.116 161.673 153.446 165.576 154.735C171.718 156.762 170.181 159.348 160.18 163.816L152.802 167.112L148.958 175.06C146.844 179.432 145.422 183.509 145.799 184.119C146.176 184.73 151.854 191.898 158.416 200.049L170.348 214.869L171.616 213.549C173.865 211.208 183.059 193.129 183.059 191.047C183.059 189.938 181.484 186.062 179.559 182.435C176.095 175.907 175.237 172.729 176.938 172.729C177.422 172.729 180.234 173.833 183.188 175.182C195.341 180.732 206.937 182.186 211.352 178.713C214.155 176.508 215.064 174.125 217.548 162.465L219.202 154.7L222.63 151.965C226.415 148.945 226.804 147.07 224.55 142.711C223.629 140.93 222.947 136.469 222.8 131.261L222.559 122.729L209.559 122.716C202.409 122.708 195.577 122.438 194.376 122.116L192.193 121.531L189.672 126.505ZM344.623 266.058L342.805 267.388L345.581 271.583C348.796 276.441 349.964 284.169 348.03 287.783L346.775 290.129L342.85 282.184C338.862 274.11 336.492 270.729 334.822 270.729C333.16 270.729 319.606 276.92 317.809 278.5C315.622 280.423 315.505 286.467 317.559 291.383C320.838 299.231 320.368 299.777 304.836 306.147C278.234 317.057 255.644 326.744 254.772 327.616C253.379 329.009 255.456 336.316 260.133 346.479L263.929 354.729L266.744 354.692L269.559 354.654L304.059 328.696C323.034 314.419 341.836 301.063 345.84 299.015C349.845 296.967 354.113 294.236 355.324 292.947L357.527 290.602L357.898 283.249C358.102 279.203 357.74 274.291 357.092 272.328C355.017 266.041 348.872 262.952 344.623 266.058ZM461.223 269.229C458.9 275.384 457.422 277.181 452.669 279.627L447.793 282.136L451.768 283.825C456.28 285.741 459.935 289.861 460.754 293.952C461.34 296.885 463.059 297.807 463.059 295.189C463.059 291.486 466.993 286.062 470.985 284.262C475.352 282.293 476.286 280.729 473.094 280.729C469.677 280.729 464.245 275.036 463.253 270.416L462.355 266.229L461.223 269.229ZM61.679 294.294C54.738 300.706 49.059 306.349 49.059 306.833C49.059 307.686 66.001 321.643 67.106 321.701C67.758 321.735 75.232 283.569 74.681 283.018C74.472 282.808 68.621 287.883 61.679 294.294ZM422.757 327.825C415.475 329.538 408.394 333.697 402.835 339.525C392.476 350.385 389.593 359.852 387.479 389.944L386.867 398.658L390.426 403.001C392.383 405.39 394.891 409.343 396 411.786L398.015 416.229L398.037 430.979L398.059 445.729H440.498H482.936L483.511 440.979C485.59 423.774 488.067 416.584 494.506 409.062C501.341 401.077 513.357 395.46 526.779 393.977L533.552 393.229L535.73 387.229C540.46 374.199 546.884 341.153 545.646 336.219C544.97 333.525 537.715 330.05 528.897 328.195L521.928 326.729L474.244 326.829C448.017 326.885 424.848 327.332 422.757 327.825ZM165.809 345.287L141.059 357.737L141.065 359.983C141.068 361.218 141.545 363.938 142.125 366.027L143.18 369.825L145.369 369.146C148.953 368.035 194.585 344.465 196.315 342.831C197.646 341.574 194.035 332.724 192.215 332.783C191.304 332.812 179.422 338.439 165.809 345.287ZM350.059 344.194C350.059 346.379 344.245 352.586 340.305 354.607L336.852 356.378L341.279 358.069C346.023 359.881 349.234 363.402 350.544 368.229L351.358 371.229L352.508 367.374C353.954 362.527 357.124 359.193 361.731 357.672L365.314 356.49L360.437 353.859L355.559 351.229L353.559 347.015C351.524 342.729 350.059 341.548 350.059 344.194ZM97.37 359.599C78.227 369.285 74.059 371.914 74.059 374.302C74.059 376.004 79.224 379.024 86.773 381.737C93.794 384.261 94.848 385.506 97.983 394.968C99.21 398.675 100.675 401.991 101.237 402.339C101.799 402.686 103.426 402.099 104.853 401.034L107.447 399.097L107.173 388.913C107.017 383.1 107.299 378.729 107.831 378.729C108.342 378.729 110.153 381.879 111.853 385.729L114.945 392.729H116.92C118.007 392.729 119.607 392.456 120.477 392.122L122.059 391.515L122.015 385.872C121.991 382.768 121.603 378.321 121.151 375.989L120.331 371.748L121.858 370.489C122.792 369.718 123.528 369.617 123.755 370.229C123.959 370.779 125.361 374.154 126.87 377.729L129.613 384.229L131.773 384.54C133.213 384.748 134.503 383.981 135.644 382.24L137.355 379.628L134.589 371.428C129.364 355.945 125.019 349.667 119.622 349.81C117.859 349.856 108.413 354.012 97.37 359.599ZM25.596 352.479C25.789 353.441 26.475 357.379 27.12 361.229C28.122 367.205 30.994 378.564 35.4 393.979C35.99 396.042 36.874 397.729 37.364 397.729C38.693 397.729 56.379 388.735 57.695 387.39C58.32 386.751 59.05 382.09 59.317 377.032L59.802 367.835L56.68 366.354C54.964 365.539 49.959 363.353 45.559 361.496C41.159 359.638 34.963 356.456 31.79 354.424C28.616 352.392 25.846 350.729 25.633 350.729C25.42 350.729 25.404 351.517 25.596 352.479ZM424.795 365.979C420.592 369.171 420.929 375.287 425.473 378.265L427.995 379.917L430.777 378.994C432.307 378.486 434.126 376.982 434.818 375.65C438.178 369.191 430.421 361.707 424.795 365.979ZM499.648 367.806C496.411 371.652 496.376 374.137 499.514 377.274C502.443 380.204 505.986 380.419 509.148 377.858L511.459 375.987V372.229V368.471L509.148 366.6C505.773 363.867 502.626 364.266 499.648 367.806ZM76.059 392.189C71.604 393.805 42.059 408.588 42.059 409.201C42.059 409.454 42.829 411.276 43.771 413.25L45.482 416.84L47.745 416.272C52.385 415.107 88.059 397.369 88.059 396.227C88.059 392.599 81.247 390.307 76.059 392.189ZM321.745 407.929C316.557 409.011 311.576 413.03 309.109 418.125L307.059 422.36V429.659V436.957L309.134 440.593C310.275 442.593 313.537 445.804 316.384 447.729C319.795 450.036 322.326 452.75 323.809 455.691L326.059 460.153V494.335V528.517L329.093 531.765L332.126 535.013L339.726 534.438C343.905 534.122 347.828 533.36 348.442 532.746L349.559 531.629V477.429V423.229L347.188 418.413C345.793 415.581 343.312 412.601 341.164 411.18C336.909 408.364 327.342 406.762 321.745 407.929ZM459.694 408.802L457.059 410.874V414.302C457.059 418.799 459.995 421.729 464.502 421.729H467.946L469.502 419.506C470.358 418.284 471.059 415.842 471.059 414.079V410.874L468.424 408.802C466.975 407.662 465.011 406.729 464.059 406.729C463.107 406.729 461.143 407.662 459.694 408.802ZM518.559 410.128C505.542 414.245 499.368 422.211 497.17 437.729C495.755 447.72 495.046 465.855 496.096 465.206C497.466 464.359 505.769 452.142 512.12 441.628C517.492 432.734 529.059 410.649 529.059 409.285C529.059 408.308 522.696 408.819 518.559 410.128ZM423.809 460.487L365.059 460.745V476.737V492.729H418.581H472.104L476.826 488.479C479.423 486.142 482.098 483.554 482.771 482.729C484.114 481.083 484.555 462.946 483.294 461.229C482.815 460.577 462.12 460.319 423.809 460.487ZM141.059 496.783C141.059 497.913 139.709 504.487 138.059 511.391C136.409 518.295 135.059 524.096 135.059 524.28C135.059 525.779 181.774 557.347 182.668 556.453C182.908 556.213 178.931 549.765 173.83 542.123C165.308 529.354 155.97 515.036 146.671 500.479C142.836 494.476 141.059 493.306 141.059 496.783ZM363.569 512.979C363.213 516.417 363.064 522.604 363.24 526.729L363.559 534.229L392.915 534.494L422.272 534.76L428.415 530.584C435.219 525.959 448.382 515.723 454.548 510.262L458.537 506.729H411.378H364.218L363.569 512.979Z" fill="white"/>
<path d="M2322.58 186.722C2335.21 186.722 2346.45 189.287 2356.31 194.418C2366.37 199.351 2374.26 207.047 2379.98 217.506C2385.7 227.767 2388.56 240.988 2388.56 257.17V343.006C2388.56 345.951 2386.17 348.338 2383.23 348.338H2347.74C2344.79 348.338 2342.4 345.951 2342.4 343.006V264.274C2342.4 251.447 2339.54 241.975 2333.82 235.858C2328.3 229.74 2320.41 226.682 2310.16 226.682C2302.86 226.682 2296.25 228.26 2290.33 231.418C2284.61 234.378 2280.08 239.015 2276.72 245.33C2273.57 251.644 2271.99 259.735 2271.99 269.602V343.006C2271.99 345.951 2269.6 348.338 2266.66 348.338H2231.17C2228.22 348.338 2225.83 345.951 2225.83 343.006V194.421C2225.83 191.477 2228.22 189.09 2231.17 189.09H2264.59C2267.53 189.09 2269.92 191.477 2269.92 194.421V219.732C2269.92 223.599 2264.85 225.046 2262.81 221.763V221.763C2262.08 220.594 2262.03 219.121 2262.72 217.932C2268.37 208.218 2276.2 200.676 2286.19 195.306C2296.84 189.583 2308.97 186.722 2322.58 186.722Z" fill="white"/>
<path d="M2146.2 348.338C2143.25 348.338 2140.87 345.951 2140.87 343.006V318.366C2140.87 317.635 2140.72 316.912 2140.42 316.241L2138.35 311.466C2138.06 310.796 2137.91 310.072 2137.91 309.341V254.802C2137.91 244.935 2134.85 237.239 2128.74 231.714C2122.82 226.188 2113.65 223.426 2101.22 223.426C2092.74 223.426 2084.36 224.807 2076.07 227.57C2070.35 229.385 2065.22 231.696 2060.68 234.5C2057.82 236.267 2053.93 235.438 2052.39 232.447L2040.91 210.085C2039.7 207.72 2040.4 204.807 2042.66 203.403C2050.52 198.508 2059.69 194.625 2070.16 191.754C2082.38 188.399 2094.81 186.722 2107.43 186.722C2131.7 186.722 2150.53 192.444 2163.94 203.89C2177.36 215.335 2184.06 233.194 2184.06 257.466V343.006C2184.06 345.951 2181.68 348.338 2178.73 348.338H2146.2ZM2092.35 350.706C2079.92 350.706 2069.27 348.634 2060.39 344.49C2051.52 340.148 2044.71 334.327 2039.98 327.026C2035.24 319.724 2032.88 311.535 2032.88 302.458C2032.88 292.986 2035.15 284.698 2039.68 277.594C2044.42 270.49 2051.81 264.964 2061.87 261.018C2071.93 256.874 2085.05 254.802 2101.22 254.802H2138.2C2141.14 254.802 2143.53 257.189 2143.53 260.133V276.406C2143.53 279.351 2141.14 281.738 2138.2 281.738H2106.25C2095.4 281.738 2087.91 283.514 2083.77 287.066C2079.82 290.618 2077.85 295.058 2077.85 300.386C2077.85 306.306 2080.12 311.042 2084.65 314.594C2089.39 317.948 2095.8 319.626 2103.88 319.626C2111.58 319.626 2118.48 317.85 2124.59 314.298C2126.51 313.12 2128.27 311.778 2129.86 310.27C2133.48 306.833 2141 307.304 2142.58 312.041L2144.45 317.661C2144.81 318.745 2144.83 319.92 2144.43 320.993C2140.98 330.437 2135.06 337.677 2126.67 342.714C2117.79 348.042 2106.35 350.706 2092.35 350.706Z" fill="white"/>
<path d="M1939.91 350.706C1921.77 350.706 1905.79 347.154 1891.98 340.05C1878.37 332.946 1867.82 323.276 1860.33 311.042C1852.83 298.61 1849.08 284.5 1849.08 268.714C1849.08 252.73 1852.73 238.62 1860.03 226.386C1867.53 213.954 1877.68 204.284 1890.51 197.378C1903.33 190.274 1917.82 186.722 1934 186.722C1949.58 186.722 1963.58 190.076 1976.01 196.786C1988.63 203.298 1998.59 212.77 2005.89 225.202C2013.19 237.436 2016.84 252.138 2016.84 269.306C2016.84 271.082 2016.74 273.154 2016.54 275.522C2016.5 275.997 2016.46 276.468 2016.41 276.935C2016.16 279.662 2013.86 281.738 2011.13 281.738H1891.99C1889.05 281.738 1886.66 279.351 1886.66 276.406V260.133C1886.66 257.189 1889.05 254.802 1891.99 254.802H1977.08C1980.46 254.802 1981.45 259.413 1978.36 260.801V260.801C1976.29 261.736 1973.93 260.214 1973.74 257.945C1973.2 251.664 1971.59 246.078 1968.91 241.186C1965.56 235.068 1960.92 230.332 1955 226.978C1949.09 223.426 1942.18 221.65 1934.29 221.65C1926.4 221.65 1919.4 223.426 1913.29 226.978C1907.37 230.332 1902.73 235.167 1899.38 241.482C1896.03 247.599 1894.35 254.9 1894.35 263.386V270.49C1894.35 279.172 1896.23 286.868 1899.97 293.578C1903.92 300.09 1909.34 305.122 1916.25 308.674C1923.35 312.028 1931.63 313.706 1941.1 313.706C1949.58 313.706 1956.98 312.423 1963.29 309.858C1968.17 307.932 1972.73 305.283 1976.95 301.911C1979.28 300.044 1982.71 300.122 1984.73 302.321L2002.34 321.422C2004.19 323.429 2004.24 326.527 2002.3 328.445C1995.59 335.065 1987.52 340.314 1978.08 344.194C1967.03 348.535 1954.31 350.706 1939.91 350.706Z" fill="white"/>
<path d="M1777.26 348.338C1774.32 348.338 1771.93 345.951 1771.93 343.006V134.037C1771.93 131.093 1774.32 128.706 1777.26 128.706H1812.75C1815.7 128.706 1818.08 131.093 1818.08 134.037V343.006C1818.08 345.951 1815.7 348.338 1812.75 348.338H1777.26Z" fill="white"/>
<path d="M1674.92 350.706C1657.76 350.706 1642.47 347.252 1629.06 340.346C1615.65 333.242 1605.09 323.474 1597.4 311.042C1589.91 298.61 1586.16 284.5 1586.16 268.714C1586.16 252.73 1589.91 238.62 1597.4 226.386C1605.09 213.954 1615.65 204.284 1629.06 197.378C1642.47 190.274 1657.76 186.722 1674.92 186.722C1691.68 186.722 1706.28 190.274 1718.71 197.378C1729.67 203.473 1738.1 211.95 1744 222.809C1745.34 225.275 1744.3 228.306 1741.83 229.635L1715.06 244.019C1712.49 245.401 1709.31 244.434 1707.65 242.03C1704.03 236.771 1699.72 232.74 1694.74 229.938C1688.63 226.386 1681.92 224.61 1674.62 224.61C1666.73 224.61 1659.63 226.386 1653.32 229.938C1647.01 233.49 1641.98 238.522 1638.23 245.034C1634.68 251.546 1632.91 259.439 1632.91 268.714C1632.91 277.988 1634.68 285.882 1638.23 292.394C1641.98 298.906 1647.01 303.938 1653.32 307.49C1659.63 311.042 1666.73 312.818 1674.62 312.818C1681.92 312.818 1688.63 311.14 1694.74 307.786C1699.72 304.983 1704.03 300.89 1707.66 295.506C1709.31 293.055 1712.53 292.066 1715.13 293.483L1741.85 308.062C1744.31 309.406 1745.33 312.441 1743.98 314.899C1738.08 325.603 1729.66 334.085 1718.71 340.346C1706.28 347.252 1691.68 350.706 1674.92 350.706Z" fill="white"/>
<path d="M1480.39 283.513C1477.45 283.513 1475.06 281.126 1475.06 278.182V251.845C1475.06 248.9 1477.45 246.513 1480.39 246.513H1553.46C1556.4 246.513 1558.79 248.9 1558.79 251.845V278.182C1558.79 281.126 1556.4 283.513 1553.46 283.513H1480.39Z" fill="white"/>
<path d="M1401.34 348.338C1398.4 348.338 1396.01 345.951 1396.01 343.006V318.366C1396.01 317.635 1395.86 316.912 1395.57 316.241L1393.49 311.466C1393.2 310.796 1393.05 310.072 1393.05 309.341V254.802C1393.05 244.935 1389.99 237.239 1383.88 231.714C1377.96 226.188 1368.79 223.426 1356.36 223.426C1347.88 223.426 1339.5 224.807 1331.22 227.57C1325.49 229.385 1320.36 231.696 1315.82 234.5C1312.96 236.267 1309.07 235.438 1307.54 232.447L1296.06 210.085C1294.84 207.72 1295.54 204.807 1297.8 203.403C1305.67 198.508 1314.83 194.625 1325.3 191.754C1337.53 188.399 1349.95 186.722 1362.58 186.722C1386.84 186.722 1405.68 192.444 1419.09 203.89C1432.5 215.335 1439.21 233.194 1439.21 257.466V343.006C1439.21 345.951 1436.82 348.338 1433.87 348.338H1401.34ZM1347.49 350.706C1335.06 350.706 1324.41 348.634 1315.54 344.49C1306.66 340.148 1299.86 334.327 1295.12 327.026C1290.39 319.724 1288.02 311.535 1288.02 302.458C1288.02 292.986 1290.29 284.698 1294.83 277.594C1299.56 270.49 1306.96 264.964 1317.02 261.018C1327.07 256.874 1340.19 254.802 1356.36 254.802H1393.34C1396.29 254.802 1398.67 257.189 1398.67 260.133V276.406C1398.67 279.351 1396.29 281.738 1393.34 281.738H1361.39C1350.55 281.738 1343.05 283.514 1338.91 287.066C1334.96 290.618 1332.99 295.058 1332.99 300.386C1332.99 306.306 1335.26 311.042 1339.8 314.594C1344.53 317.948 1350.94 319.626 1359.03 319.626C1366.72 319.626 1373.62 317.85 1379.74 314.298C1381.66 313.12 1383.41 311.778 1385 310.27C1388.62 306.833 1396.15 307.304 1397.72 312.041L1399.6 317.661C1399.96 318.745 1399.97 319.92 1399.58 320.993C1396.12 330.437 1390.2 337.677 1381.81 342.714C1372.93 348.042 1361.49 350.706 1347.49 350.706Z" fill="white"/>
<path d="M1191.92 186.722C1204.54 186.722 1215.68 189.287 1225.35 194.418C1235.21 199.351 1242.9 207.047 1248.43 217.506C1254.15 227.767 1257.01 240.988 1257.01 257.17V343.006C1257.01 345.951 1254.62 348.338 1251.67 348.338H1216.18C1213.24 348.338 1210.85 345.951 1210.85 343.006V264.274C1210.85 251.447 1208.19 241.975 1202.86 235.858C1197.54 229.74 1190.04 226.682 1180.38 226.682C1173.67 226.682 1167.66 228.26 1162.33 231.418C1157 234.378 1152.86 238.916 1149.9 245.034C1146.95 251.151 1145.47 258.946 1145.47 268.418V343.006C1145.47 345.951 1143.08 348.338 1140.13 348.338H1104.64C1101.7 348.338 1099.31 345.951 1099.31 343.006V264.274C1099.31 251.447 1096.65 241.975 1091.32 235.858C1086.2 229.74 1078.8 226.682 1069.13 226.682C1062.43 226.682 1056.41 228.26 1051.09 231.418C1045.76 234.378 1041.62 238.916 1038.66 245.034C1035.7 251.151 1034.22 258.946 1034.22 268.418V343.006C1034.22 345.951 1031.84 348.338 1028.89 348.338H993.399C990.455 348.338 988.068 345.951 988.068 343.006V194.421C988.068 191.477 990.455 189.09 993.399 189.09H1026.82C1029.76 189.09 1032.15 191.477 1032.15 194.421V219.638C1032.15 223.466 1027.17 224.945 1025.08 221.736V221.736C1024.33 220.584 1024.24 219.114 1024.91 217.91C1030.35 208.027 1037.8 200.493 1047.24 195.306C1057.5 189.583 1069.13 186.722 1082.15 186.722C1096.75 186.722 1109.47 190.471 1120.32 197.97C1129.17 203.824 1135.62 212.215 1139.66 223.144C1141.06 226.932 1137.48 230.422 1133.58 229.359L1131.85 228.886C1128.73 228.034 1127.06 224.606 1128.6 221.758C1133.93 211.888 1141.52 203.86 1151.38 197.674C1163.22 190.372 1176.73 186.722 1191.92 186.722Z" fill="white"/>
<path d="M866.849 348.338C863.904 348.338 861.517 345.951 861.517 343.006V194.421C861.517 191.477 863.904 189.09 866.849 189.09H900.269C903.213 189.09 905.6 191.477 905.6 194.421V220.982C905.6 224.14 901.32 225.109 899.96 222.258V222.258C899.596 221.495 899.572 220.609 899.917 219.837C904.679 209.194 912.097 201.115 922.169 195.602C931.36 190.396 942.306 187.48 955.005 186.851C957.946 186.706 960.335 189.109 960.335 192.053V224.01C960.335 226.867 957.866 229.05 955.009 229.05V229.05C953.432 228.852 951.755 228.754 949.98 228.754C937.356 228.754 927.1 232.404 919.21 239.706C911.518 246.81 907.671 257.959 907.671 273.154V343.006C907.671 345.951 905.284 348.338 902.34 348.338H866.849Z" fill="white"/>
<path d="M781.88 348.338C778.936 348.338 776.549 345.951 776.549 343.006V318.366C776.549 317.635 776.398 316.912 776.107 316.241L774.032 311.466C773.741 310.796 773.59 310.072 773.59 309.341V254.802C773.59 244.935 770.533 237.239 764.418 231.714C758.501 226.188 749.329 223.426 736.903 223.426C728.422 223.426 720.039 224.807 711.755 227.57C706.031 229.385 700.9 231.696 696.362 234.5C693.502 236.267 689.613 235.438 688.077 232.447L676.594 210.085C675.379 207.72 676.083 204.807 678.339 203.403C686.205 198.508 695.371 194.625 705.838 191.754C718.067 188.399 730.493 186.722 743.116 186.722C767.377 186.722 786.214 192.444 799.626 203.89C813.038 215.335 819.745 233.194 819.745 257.466V343.006C819.745 345.951 817.358 348.338 814.413 348.338H781.88ZM728.027 350.706C715.601 350.706 704.95 348.634 696.074 344.49C687.198 340.148 680.394 334.327 675.66 327.026C670.926 319.724 668.559 311.535 668.559 302.458C668.559 292.986 670.827 284.698 675.364 277.594C680.098 270.49 687.494 264.964 697.554 261.018C707.613 256.874 720.729 254.802 736.903 254.802H773.88C776.825 254.802 779.212 257.189 779.212 260.133V276.406C779.212 279.351 776.825 281.738 773.88 281.738H741.933C731.085 281.738 723.589 283.514 719.447 287.066C715.503 290.618 713.53 295.058 713.53 300.386C713.53 306.306 715.798 311.042 720.335 314.594C725.069 317.948 731.479 319.626 739.566 319.626C747.258 319.626 754.162 317.85 760.276 314.298C762.196 313.12 763.951 311.778 765.54 310.27C769.162 306.833 776.684 307.304 778.262 312.041L780.135 317.661C780.496 318.745 780.508 319.92 780.115 320.993C776.66 330.437 770.737 337.677 762.347 342.714C753.472 348.042 742.032 350.706 728.027 350.706Z" fill="white"/>
<path d="M2366.95 482.359C2362.97 482.359 2359.13 481.853 2355.44 480.839C2351.81 479.766 2348.92 478.485 2346.78 476.994L2351.06 468.5C2353.21 469.871 2355.77 471.004 2358.74 471.898C2361.72 472.792 2364.69 473.239 2367.67 473.239C2371.18 473.239 2373.71 472.762 2375.26 471.808C2376.86 470.855 2377.67 469.573 2377.67 467.964C2377.67 466.652 2377.13 465.669 2376.06 465.013C2374.99 464.298 2373.59 463.761 2371.86 463.403C2370.14 463.046 2368.2 462.718 2366.06 462.42C2363.98 462.122 2361.87 461.734 2359.72 461.258C2357.64 460.721 2355.74 459.976 2354.01 459.022C2352.28 458.009 2350.89 456.668 2349.81 454.999C2348.74 453.329 2348.21 451.124 2348.21 448.382C2348.21 445.342 2349.07 442.719 2350.8 440.513C2352.52 438.248 2354.93 436.52 2358.03 435.327C2361.18 434.076 2364.9 433.45 2369.19 433.45C2372.4 433.45 2375.64 433.807 2378.92 434.523C2382.19 435.238 2384.9 436.251 2387.04 437.563L2382.76 446.057C2380.49 444.686 2378.2 443.762 2375.88 443.285C2373.62 442.749 2371.36 442.481 2369.1 442.481C2365.7 442.481 2363.18 442.987 2361.51 444.001C2359.9 445.014 2359.1 446.296 2359.1 447.845C2359.1 449.276 2359.63 450.349 2360.71 451.064C2361.78 451.78 2363.18 452.346 2364.9 452.763C2366.63 453.18 2368.53 453.538 2370.61 453.836C2372.76 454.075 2374.87 454.462 2376.95 454.999C2379.04 455.535 2380.94 456.28 2382.67 457.234C2384.45 458.128 2385.88 459.41 2386.95 461.079C2388.02 462.748 2388.56 464.924 2388.56 467.606C2388.56 470.586 2387.67 473.179 2385.88 475.385C2384.15 477.591 2381.68 479.319 2378.47 480.571C2375.26 481.763 2371.42 482.359 2366.95 482.359Z" fill="white"/>
<path d="M2332.33 482.36C2327.09 482.36 2323.05 481.018 2320.19 478.336C2317.33 475.594 2315.9 471.57 2315.9 466.265V423.436H2327.06V465.997C2327.06 468.262 2327.63 470.02 2328.76 471.272C2329.95 472.524 2331.59 473.15 2333.67 473.15C2336.17 473.15 2338.25 472.494 2339.92 471.183L2343.04 479.141C2341.73 480.214 2340.13 481.018 2338.22 481.555C2336.32 482.091 2334.35 482.36 2332.33 482.36ZM2308.05 443.286V434.344H2339.83V443.286H2308.05Z" fill="white"/>
<path d="M2281.26 482.359C2275.96 482.359 2271.32 481.316 2267.33 479.23C2263.4 477.084 2260.34 474.163 2258.14 470.467C2255.99 466.771 2254.92 462.569 2254.92 457.86C2254.92 453.091 2255.96 448.889 2258.05 445.252C2260.19 441.557 2263.11 438.666 2266.8 436.579C2270.55 434.493 2274.8 433.45 2279.56 433.45C2284.21 433.45 2288.34 434.463 2291.97 436.49C2295.6 438.517 2298.46 441.378 2300.54 445.074C2302.63 448.769 2303.67 453.121 2303.67 458.128C2303.67 458.605 2303.64 459.141 2303.58 459.738C2303.58 460.334 2303.55 460.9 2303.49 461.436H2263.76V454.015H2297.6L2293.22 456.34C2293.28 453.598 2292.72 451.184 2291.53 449.097C2290.34 447.011 2288.7 445.372 2286.62 444.179C2284.59 442.987 2282.24 442.391 2279.56 442.391C2276.83 442.391 2274.42 442.987 2272.33 444.179C2270.31 445.372 2268.7 447.041 2267.51 449.187C2266.38 451.273 2265.81 453.747 2265.81 456.608V458.396C2265.81 461.258 2266.47 463.791 2267.78 465.996C2269.09 468.202 2270.93 469.901 2273.31 471.093C2275.69 472.285 2278.43 472.881 2281.53 472.881C2284.21 472.881 2286.62 472.464 2288.76 471.63C2290.9 470.795 2292.81 469.484 2294.47 467.695L2300.45 474.58C2298.31 477.084 2295.6 479.021 2292.33 480.392C2289.12 481.704 2285.43 482.359 2281.26 482.359Z" fill="white"/>
<path d="M2224.07 482.359C2220.21 482.359 2216.66 481.465 2213.45 479.677C2210.3 477.889 2207.77 475.206 2205.86 471.63C2204.02 467.993 2203.09 463.403 2203.09 457.86C2203.09 452.257 2203.99 447.667 2205.77 444.09C2207.62 440.513 2210.12 437.861 2213.27 436.132C2216.43 434.344 2220.03 433.45 2224.07 433.45C2228.78 433.45 2232.91 434.463 2236.48 436.49C2240.11 438.517 2242.97 441.348 2245.05 444.984C2247.2 448.62 2248.27 452.912 2248.27 457.86C2248.27 462.807 2247.2 467.129 2245.05 470.825C2242.97 474.461 2240.11 477.292 2236.48 479.319C2232.91 481.346 2228.78 482.359 2224.07 482.359ZM2197.65 499.08V433.986H2208.27V445.252L2207.92 457.949L2208.81 470.646V499.08H2197.65ZM2222.82 472.792C2225.5 472.792 2227.88 472.196 2229.97 471.004C2232.11 469.812 2233.81 468.083 2235.06 465.818C2236.31 463.553 2236.93 460.9 2236.93 457.86C2236.93 454.76 2236.31 452.107 2235.06 449.902C2233.81 447.637 2232.11 445.908 2229.97 444.716C2227.88 443.524 2225.5 442.928 2222.82 442.928C2220.15 442.928 2217.74 443.524 2215.59 444.716C2213.45 445.908 2211.75 447.637 2210.5 449.902C2209.25 452.107 2208.63 454.76 2208.63 457.86C2208.63 460.9 2209.25 463.553 2210.5 465.818C2211.75 468.083 2213.45 469.812 2215.59 471.004C2217.74 472.196 2220.15 472.792 2222.82 472.792Z" fill="white"/>
<path d="M2160.6 481.733V433.986H2171.22V447.13L2169.97 443.285C2171.4 440.066 2173.63 437.622 2176.67 435.953C2179.76 434.284 2183.6 433.45 2188.18 433.45V444.09C2187.71 443.971 2187.26 443.911 2186.84 443.911C2186.43 443.852 2186.01 443.822 2185.59 443.822C2181.37 443.822 2178.01 445.074 2175.51 447.577C2173.01 450.021 2171.76 453.687 2171.76 458.575V481.733H2160.6Z" fill="white"/>
<path d="M2135.74 481.733V472.077L2135.12 470.02V453.121C2135.12 449.842 2134.13 447.309 2132.17 445.521C2130.21 443.673 2127.23 442.749 2123.24 442.749C2120.56 442.749 2117.92 443.166 2115.3 444.001C2112.74 444.835 2110.56 445.998 2108.78 447.488L2104.4 439.351C2106.96 437.384 2110 435.924 2113.51 434.97C2117.08 433.956 2120.77 433.45 2124.58 433.45C2131.48 433.45 2136.81 435.119 2140.56 438.457C2144.37 441.735 2146.27 446.832 2146.27 453.747V481.733H2135.74ZM2120.74 482.359C2117.17 482.359 2114.05 481.763 2111.37 480.571C2108.69 479.319 2106.61 477.62 2105.12 475.474C2103.69 473.269 2102.98 470.795 2102.98 468.053C2102.98 465.371 2103.6 462.956 2104.85 460.81C2106.16 458.665 2108.27 456.966 2111.19 455.714C2114.11 454.462 2117.97 453.836 2122.8 453.836H2136.63V461.258H2123.6C2119.79 461.258 2117.23 461.883 2115.92 463.135C2114.61 464.327 2113.96 465.818 2113.96 467.606C2113.96 469.633 2114.76 471.242 2116.37 472.434C2117.97 473.627 2120.21 474.223 2123.06 474.223C2125.8 474.223 2128.24 473.597 2130.38 472.345C2132.59 471.093 2134.16 469.245 2135.12 466.801L2136.99 473.507C2135.92 476.309 2133.98 478.485 2131.19 480.035C2128.45 481.584 2124.97 482.359 2120.74 482.359Z" fill="white"/>
<path d="M2076.37 482.359C2071.37 482.359 2066.9 481.316 2062.98 479.23C2059.11 477.084 2056.07 474.163 2053.87 470.467C2051.67 466.771 2050.57 462.569 2050.57 457.86C2050.57 453.091 2051.67 448.889 2053.87 445.252C2056.07 441.557 2059.11 438.666 2062.98 436.579C2066.9 434.493 2071.37 433.45 2076.37 433.45C2081.01 433.45 2085.09 434.403 2088.6 436.311C2092.17 438.159 2094.88 440.901 2096.72 444.537L2088.15 449.544C2086.72 447.279 2084.97 445.61 2082.88 444.537C2080.86 443.464 2078.66 442.928 2076.28 442.928C2073.54 442.928 2071.07 443.524 2068.87 444.716C2066.67 445.908 2064.94 447.637 2063.69 449.902C2062.44 452.107 2061.82 454.76 2061.82 457.86C2061.82 460.959 2062.44 463.642 2063.69 465.907C2064.94 468.113 2066.67 469.812 2068.87 471.004C2071.07 472.196 2073.54 472.792 2076.28 472.792C2078.66 472.792 2080.86 472.255 2082.88 471.183C2084.97 470.11 2086.72 468.44 2088.15 466.175L2096.72 471.183C2094.88 474.759 2092.17 477.531 2088.6 479.498C2085.09 481.406 2081.01 482.359 2076.37 482.359Z" fill="white"/>
<path d="M1988.71 482.359C1984.13 482.359 1979.99 481.346 1976.3 479.319C1972.67 477.233 1969.81 474.372 1967.73 470.736C1965.65 467.099 1964.6 462.808 1964.6 457.86C1964.6 452.912 1965.65 448.62 1967.73 444.984C1969.81 441.348 1972.67 438.517 1976.3 436.49C1979.99 434.463 1984.13 433.45 1988.71 433.45C1992.7 433.45 1996.27 434.344 1999.42 436.132C2002.58 437.861 2005.08 440.514 2006.92 444.09C2008.77 447.667 2009.69 452.257 2009.69 457.86C2009.69 463.404 2008.8 467.994 2007.01 471.63C2005.23 475.206 2002.76 477.889 1999.6 479.677C1996.45 481.465 1992.82 482.359 1988.71 482.359ZM1990.05 472.792C1992.73 472.792 1995.11 472.196 1997.19 471.004C1999.33 469.812 2001.03 468.083 2002.28 465.818C2003.59 463.553 2004.24 460.9 2004.24 457.86C2004.24 454.76 2003.59 452.108 2002.28 449.902C2001.03 447.637 1999.33 445.908 1997.19 444.716C1995.11 443.524 1992.73 442.928 1990.05 442.928C1987.37 442.928 1984.96 443.524 1982.82 444.716C1980.73 445.908 1979.04 447.637 1977.73 449.902C1976.48 452.108 1975.85 454.76 1975.85 457.86C1975.85 460.9 1976.48 463.553 1977.73 465.818C1979.04 468.083 1980.73 469.812 1982.82 471.004C1984.96 472.196 1987.37 472.792 1990.05 472.792ZM2004.51 481.734V470.467L2004.96 457.771L2004.06 445.074V415.388H2015.13V481.734H2004.51Z" fill="white"/>
<path d="M1934.38 433.45C1938.19 433.45 1941.58 434.195 1944.56 435.685C1947.59 437.175 1949.97 439.47 1951.7 442.57C1953.43 445.61 1954.29 449.544 1954.29 454.373V481.733H1943.13V455.803C1943.13 451.571 1942.12 448.412 1940.09 446.325C1938.13 444.239 1935.36 443.196 1931.79 443.196C1929.17 443.196 1926.85 443.732 1924.83 444.805C1922.81 445.878 1921.23 447.488 1920.1 449.634C1919.03 451.72 1918.49 454.373 1918.49 457.592V481.733H1907.33V433.986H1917.95V446.862L1916.08 442.928C1917.75 439.888 1920.16 437.563 1923.31 435.953C1926.52 434.284 1930.21 433.45 1934.38 433.45Z" fill="white"/>
<path d="M1882.47 481.733V472.077L1881.85 470.02V453.121C1881.85 449.842 1880.87 447.309 1878.9 445.521C1876.94 443.673 1873.96 442.749 1869.98 442.749C1867.3 442.749 1864.65 443.166 1862.03 444.001C1859.47 444.835 1857.3 445.998 1855.51 447.488L1851.14 439.351C1853.7 437.384 1856.73 435.924 1860.25 434.97C1863.82 433.956 1867.51 433.45 1871.32 433.45C1878.22 433.45 1883.55 435.119 1887.3 438.457C1891.1 441.735 1893.01 446.832 1893.01 453.747V481.733H1882.47ZM1867.48 482.359C1863.91 482.359 1860.78 481.763 1858.1 480.571C1855.42 479.319 1853.34 477.62 1851.85 475.474C1850.42 473.269 1849.71 470.795 1849.71 468.053C1849.71 465.371 1850.34 462.956 1851.59 460.81C1852.89 458.665 1855.01 456.966 1857.92 455.714C1860.84 454.462 1864.71 453.836 1869.53 453.836H1883.37V461.258H1870.33C1866.52 461.258 1863.96 461.883 1862.66 463.135C1861.35 464.327 1860.69 465.818 1860.69 467.606C1860.69 469.633 1861.49 471.242 1863.1 472.434C1864.71 473.627 1866.94 474.223 1869.8 474.223C1872.54 474.223 1874.98 473.597 1877.12 472.345C1879.32 471.093 1880.9 469.245 1881.85 466.801L1883.72 473.507C1882.65 476.309 1880.72 478.485 1877.92 480.035C1875.18 481.584 1871.7 482.359 1867.48 482.359Z" fill="white"/>
<path d="M1795.3 482.359C1790.01 482.359 1785.36 481.316 1781.38 479.23C1777.45 477.084 1774.38 474.163 1772.18 470.467C1770.04 466.771 1768.97 462.569 1768.97 457.86C1768.97 453.091 1770.01 448.889 1772.09 445.252C1774.23 441.557 1777.15 438.666 1780.84 436.579C1784.59 434.493 1788.85 433.45 1793.61 433.45C1798.25 433.45 1802.39 434.463 1806.02 436.49C1809.65 438.517 1812.5 441.378 1814.59 445.074C1816.67 448.769 1817.71 453.121 1817.71 458.128C1817.71 458.605 1817.68 459.141 1817.62 459.738C1817.62 460.334 1817.59 460.9 1817.53 461.436H1777.81V454.015H1811.64L1807.27 456.34C1807.33 453.598 1806.76 451.184 1805.57 449.097C1804.38 447.011 1802.74 445.372 1800.66 444.179C1798.64 442.987 1796.29 442.391 1793.61 442.391C1790.87 442.391 1788.46 442.987 1786.38 444.179C1784.35 445.372 1782.75 447.041 1781.55 449.187C1780.42 451.273 1779.86 453.747 1779.86 456.608V458.396C1779.86 461.258 1780.51 463.791 1781.82 465.996C1783.13 468.202 1784.98 469.901 1787.36 471.093C1789.74 472.285 1792.48 472.881 1795.57 472.881C1798.25 472.881 1800.66 472.464 1802.8 471.63C1804.94 470.795 1806.85 469.484 1808.52 467.695L1814.5 474.58C1812.35 477.084 1809.65 479.021 1806.37 480.392C1803.16 481.704 1799.47 482.359 1795.3 482.359Z" fill="white"/>
<path d="M1736.28 481.733V433.986H1746.9V447.13L1745.65 443.285C1747.08 440.066 1749.31 437.622 1752.35 435.953C1755.44 434.284 1759.28 433.45 1763.86 433.45V444.09C1763.39 443.971 1762.94 443.911 1762.53 443.911C1762.11 443.852 1761.69 443.822 1761.28 443.822C1757.05 443.822 1753.69 445.074 1751.19 447.577C1748.69 450.021 1747.44 453.687 1747.44 458.575V481.733H1736.28Z" fill="white"/>
<path d="M1695.69 482.36C1691.64 482.36 1688.07 481.615 1684.98 480.125C1681.88 478.575 1679.47 476.25 1677.74 473.15C1676.02 469.991 1675.15 466.027 1675.15 461.258V433.987H1686.31V459.738C1686.31 464.03 1687.27 467.249 1689.17 469.395C1691.13 471.481 1693.9 472.524 1697.47 472.524C1700.09 472.524 1702.35 471.988 1704.26 470.915C1706.22 469.842 1707.74 468.232 1708.81 466.087C1709.94 463.941 1710.51 461.288 1710.51 458.129V433.987H1721.67V481.734H1711.04V468.858L1712.92 472.793C1711.31 475.892 1708.96 478.277 1705.87 479.946C1702.77 481.555 1699.38 482.36 1695.69 482.36Z" fill="white"/>
<path d="M1655.62 482.36C1650.38 482.36 1646.33 481.018 1643.48 478.336C1640.62 475.594 1639.19 471.57 1639.19 466.265V423.436H1650.35V465.997C1650.35 468.262 1650.92 470.02 1652.05 471.272C1653.24 472.524 1654.87 473.15 1656.96 473.15C1659.46 473.15 1661.54 472.494 1663.21 471.183L1666.33 479.141C1665.02 480.214 1663.42 481.018 1661.51 481.555C1659.61 482.091 1657.64 482.36 1655.62 482.36ZM1631.34 443.286V434.344H1663.12V443.286H1631.34Z" fill="white"/>
<path d="M1611.87 481.733V433.986H1623.03V481.733H1611.87ZM1617.49 426.118C1615.41 426.118 1613.68 425.462 1612.31 424.151C1611.01 422.839 1610.35 421.26 1610.35 419.412C1610.35 417.504 1611.01 415.924 1612.31 414.673C1613.68 413.361 1615.41 412.706 1617.49 412.706C1619.58 412.706 1621.27 413.331 1622.58 414.583C1623.95 415.775 1624.63 417.295 1624.63 419.143C1624.63 421.111 1623.98 422.78 1622.67 424.151C1621.36 425.462 1619.64 426.118 1617.49 426.118Z" fill="white"/>
<path d="M1577.8 433.45C1581.61 433.45 1585.01 434.195 1587.98 435.685C1591.02 437.175 1593.4 439.47 1595.12 442.57C1596.85 445.61 1597.71 449.544 1597.71 454.373V481.733H1586.55V455.803C1586.55 451.571 1585.54 448.412 1583.52 446.325C1581.55 444.239 1578.79 443.196 1575.21 443.196C1572.6 443.196 1570.27 443.732 1568.25 444.805C1566.23 445.878 1564.65 447.488 1563.52 449.634C1562.45 451.72 1561.91 454.373 1561.91 457.592V481.733H1550.75V433.986H1561.38V446.862L1559.5 442.928C1561.17 439.888 1563.58 437.563 1566.73 435.953C1569.95 434.284 1573.64 433.45 1577.8 433.45Z" fill="white"/>
<path d="M1513.7 481.733V433.986H1524.32V447.13L1523.07 443.285C1524.5 440.066 1526.73 437.622 1529.77 435.953C1532.87 434.284 1536.7 433.45 1541.29 433.45V444.09C1540.81 443.971 1540.36 443.911 1539.95 443.911C1539.53 443.852 1539.11 443.822 1538.7 443.822C1534.47 443.822 1531.11 445.074 1528.61 447.577C1526.11 450.021 1524.86 453.687 1524.86 458.575V481.733H1513.7Z" fill="white"/>
<path d="M1473.11 482.36C1469.06 482.36 1465.49 481.615 1462.4 480.125C1459.3 478.575 1456.89 476.25 1455.17 473.15C1453.44 469.991 1452.58 466.027 1452.58 461.258V433.987H1463.74V459.738C1463.74 464.03 1464.69 467.249 1466.59 469.395C1468.56 471.481 1471.32 472.524 1474.9 472.524C1477.51 472.524 1479.78 471.988 1481.68 470.915C1483.64 469.842 1485.16 468.232 1486.23 466.087C1487.36 463.941 1487.93 461.288 1487.93 458.129V433.987H1499.09V481.734H1488.47V468.858L1490.34 472.793C1488.73 475.892 1486.38 478.277 1483.29 479.946C1480.19 481.555 1476.8 482.36 1473.11 482.36Z" fill="white"/>
<path d="M1421.5 481.733V431.304C1421.5 426.297 1422.96 422.303 1425.87 419.322C1428.85 416.282 1433.07 414.762 1438.55 414.762C1440.51 414.762 1442.36 414.971 1444.08 415.388C1445.87 415.805 1447.36 416.461 1448.55 417.355L1445.51 425.76C1444.68 425.104 1443.73 424.628 1442.66 424.33C1441.58 423.972 1440.48 423.793 1439.35 423.793C1437.03 423.793 1435.27 424.449 1434.08 425.76C1432.89 427.012 1432.3 428.919 1432.3 431.483V436.848L1432.66 441.855V481.733H1421.5ZM1413.64 443.285V434.344H1445.42V443.285H1413.64Z" fill="white"/>
<path d="M1375.41 482.36C1370.18 482.36 1366.13 481.018 1363.27 478.336C1360.42 475.594 1358.99 471.57 1358.99 466.265V423.436H1370.15V465.997C1370.15 468.262 1370.71 470.02 1371.84 471.272C1373.03 472.524 1374.67 473.15 1376.75 473.15C1379.25 473.15 1381.34 472.494 1383 471.183L1386.13 479.141C1384.82 480.214 1383.21 481.018 1381.31 481.555C1379.4 482.091 1377.44 482.36 1375.41 482.36ZM1351.13 443.286V434.344H1382.91V443.286H1351.13Z" fill="white"/>
<path d="M1326.03 481.733V431.304C1326.03 426.297 1327.49 422.303 1330.41 419.322C1333.38 416.282 1337.61 414.762 1343.08 414.762C1345.05 414.762 1346.89 414.971 1348.62 415.388C1350.4 415.805 1351.89 416.461 1353.08 417.355L1350.05 425.76C1349.21 425.104 1348.26 424.628 1347.19 424.33C1346.12 423.972 1345.02 423.793 1343.89 423.793C1341.57 423.793 1339.81 424.449 1338.62 425.76C1337.43 427.012 1336.83 428.919 1336.83 431.483V436.848L1337.19 441.855V481.733H1326.03ZM1318.18 443.285V434.344H1349.96V443.285H1318.18Z" fill="white"/>
<path d="M1288.4 482.359C1283.52 482.359 1279.17 481.316 1275.37 479.23C1271.56 477.084 1268.55 474.163 1266.35 470.467C1264.15 466.771 1263.05 462.569 1263.05 457.86C1263.05 453.091 1264.15 448.889 1266.35 445.252C1268.55 441.557 1271.56 438.666 1275.37 436.579C1279.17 434.493 1283.52 433.45 1288.4 433.45C1293.34 433.45 1297.71 434.493 1301.52 436.579C1305.39 438.666 1308.4 441.527 1310.54 445.163C1312.74 448.799 1313.84 453.031 1313.84 457.86C1313.84 462.569 1312.74 466.771 1310.54 470.467C1308.4 474.163 1305.39 477.084 1301.52 479.23C1297.71 481.316 1293.34 482.359 1288.4 482.359ZM1288.4 472.792C1291.14 472.792 1293.58 472.196 1295.72 471.004C1297.86 469.812 1299.53 468.083 1300.72 465.818C1301.97 463.553 1302.59 460.9 1302.59 457.86C1302.59 454.76 1301.97 452.107 1300.72 449.902C1299.53 447.637 1297.86 445.908 1295.72 444.716C1293.58 443.524 1291.17 442.928 1288.49 442.928C1285.75 442.928 1283.31 443.524 1281.17 444.716C1279.09 445.908 1277.42 447.637 1276.17 449.902C1274.92 452.107 1274.29 454.76 1274.29 457.86C1274.29 460.9 1274.92 463.553 1276.17 465.818C1277.42 468.083 1279.09 469.812 1281.17 471.004C1283.31 472.196 1285.72 472.792 1288.4 472.792Z" fill="white"/>
<path d="M1235.76 482.359C1231.77 482.359 1227.93 481.853 1224.24 480.839C1220.61 479.766 1217.73 478.485 1215.58 476.994L1219.87 468.5C1222.01 469.871 1224.57 471.004 1227.55 471.898C1230.52 472.792 1233.5 473.239 1236.47 473.239C1239.98 473.239 1242.51 472.762 1244.06 471.808C1245.67 470.855 1246.47 469.573 1246.47 467.964C1246.47 466.652 1245.94 465.669 1244.86 465.013C1243.79 464.298 1242.39 463.761 1240.67 463.403C1238.94 463.046 1237.01 462.718 1234.87 462.42C1232.78 462.122 1230.67 461.734 1228.53 461.258C1226.44 460.721 1224.54 459.976 1222.81 459.022C1221.09 458.009 1219.69 456.668 1218.62 454.999C1217.55 453.329 1217.01 451.124 1217.01 448.382C1217.01 445.342 1217.87 442.719 1219.6 440.513C1221.33 438.248 1223.74 436.52 1226.83 435.327C1229.99 434.076 1233.71 433.45 1237.99 433.45C1241.2 433.45 1244.45 433.807 1247.72 434.523C1250.99 435.238 1253.7 436.251 1255.85 437.563L1251.56 446.057C1249.3 444.686 1247.01 443.762 1244.69 443.285C1242.42 442.749 1240.16 442.481 1237.9 442.481C1234.51 442.481 1231.98 442.987 1230.31 444.001C1228.71 445.014 1227.9 446.296 1227.9 447.845C1227.9 449.276 1228.44 450.349 1229.51 451.064C1230.58 451.78 1231.98 452.346 1233.71 452.763C1235.43 453.18 1237.34 453.538 1239.42 453.836C1241.56 454.075 1243.67 454.462 1245.76 454.999C1247.84 455.535 1249.75 456.28 1251.47 457.234C1253.26 458.128 1254.69 459.41 1255.76 461.079C1256.83 462.748 1257.36 464.924 1257.36 467.606C1257.36 470.586 1256.47 473.179 1254.69 475.385C1252.96 477.591 1250.49 479.319 1247.28 480.571C1244.06 481.763 1240.22 482.359 1235.76 482.359Z" fill="white"/>
<path d="M1164.92 481.733V431.304C1164.92 426.297 1166.38 422.303 1169.29 419.322C1172.27 416.282 1176.49 414.762 1181.97 414.762C1183.93 414.762 1185.78 414.971 1187.5 415.388C1189.29 415.805 1190.78 416.461 1191.97 417.355L1188.93 425.76C1188.1 425.104 1187.15 424.628 1186.08 424.33C1185.01 423.972 1183.9 423.793 1182.77 423.793C1180.45 423.793 1178.7 424.449 1177.51 425.76C1176.32 427.012 1175.72 428.919 1175.72 431.483V436.848L1176.08 441.855V481.733H1164.92ZM1157.06 443.285V434.344H1188.84V443.285H1157.06Z" fill="white"/>
<path d="M1127.29 482.359C1122.41 482.359 1118.06 481.316 1114.25 479.23C1110.44 477.084 1107.44 474.163 1105.24 470.467C1103.03 466.771 1101.93 462.569 1101.93 457.86C1101.93 453.091 1103.03 448.889 1105.24 445.252C1107.44 441.557 1110.44 438.666 1114.25 436.579C1118.06 434.493 1122.41 433.45 1127.29 433.45C1132.23 433.45 1136.6 434.493 1140.41 436.579C1144.28 438.666 1147.28 441.527 1149.43 445.163C1151.63 448.799 1152.73 453.031 1152.73 457.86C1152.73 462.569 1151.63 466.771 1149.43 470.467C1147.28 474.163 1144.28 477.084 1140.41 479.23C1136.6 481.316 1132.23 482.359 1127.29 482.359ZM1127.29 472.792C1130.02 472.792 1132.46 472.196 1134.61 471.004C1136.75 469.812 1138.42 468.083 1139.61 465.818C1140.86 463.553 1141.48 460.9 1141.48 457.86C1141.48 454.76 1140.86 452.107 1139.61 449.902C1138.42 447.637 1136.75 445.908 1134.61 444.716C1132.46 443.524 1130.05 442.928 1127.38 442.928C1124.64 442.928 1122.2 443.524 1120.05 444.716C1117.97 445.908 1116.31 447.637 1115.06 449.902C1113.81 452.107 1113.18 454.76 1113.18 457.86C1113.18 460.9 1113.81 463.553 1115.06 465.818C1116.31 468.083 1117.97 469.812 1120.05 471.004C1122.2 472.196 1124.61 472.792 1127.29 472.792Z" fill="white"/>
<path d="M1040.8 499.706C1036.4 499.706 1032.09 499.11 1027.86 497.917C1023.69 496.785 1020.27 495.116 1017.59 492.91L1022.59 484.505C1024.68 486.234 1027.29 487.605 1030.45 488.618C1033.66 489.691 1036.91 490.228 1040.18 490.228C1045.42 490.228 1049.26 489.006 1051.7 486.562C1054.14 484.177 1055.36 480.571 1055.36 475.743V467.248L1056.25 456.429L1055.89 445.61V433.986H1066.52V474.491C1066.52 483.134 1064.31 489.483 1059.91 493.536C1055.51 497.649 1049.14 499.706 1040.8 499.706ZM1039.38 479.587C1034.85 479.587 1030.75 478.634 1027.06 476.726C1023.43 474.759 1020.54 472.047 1018.4 468.59C1016.31 465.132 1015.27 461.079 1015.27 456.429C1015.27 451.839 1016.31 447.816 1018.4 444.358C1020.54 440.901 1023.43 438.218 1027.06 436.311C1030.75 434.403 1034.85 433.45 1039.38 433.45C1043.42 433.45 1047.05 434.254 1050.27 435.864C1053.48 437.473 1056.04 439.977 1057.95 443.375C1059.91 446.772 1060.89 451.124 1060.89 456.429C1060.89 461.734 1059.91 466.116 1057.95 469.573C1056.04 472.971 1053.48 475.504 1050.27 477.173C1047.05 478.783 1043.42 479.587 1039.38 479.587ZM1041.07 470.11C1043.87 470.11 1046.37 469.543 1048.57 468.411C1050.77 467.218 1052.47 465.609 1053.66 463.582C1054.91 461.496 1055.54 459.112 1055.54 456.429C1055.54 453.747 1054.91 451.392 1053.66 449.365C1052.47 447.279 1050.77 445.699 1048.57 444.626C1046.37 443.494 1043.87 442.928 1041.07 442.928C1038.28 442.928 1035.75 443.494 1033.48 444.626C1031.28 445.699 1029.56 447.279 1028.31 449.365C1027.12 451.392 1026.52 453.747 1026.52 456.429C1026.52 459.112 1027.12 461.496 1028.31 463.582C1029.56 465.609 1031.28 467.218 1033.48 468.411C1035.75 469.543 1038.28 470.11 1041.07 470.11Z" fill="white"/>
<path d="M985.048 433.45C988.857 433.45 992.25 434.195 995.226 435.685C998.261 437.175 1000.64 439.47 1002.37 442.57C1004.09 445.61 1004.96 449.544 1004.96 454.373V481.733H993.797V455.803C993.797 451.571 992.786 448.412 990.762 446.325C988.798 444.239 986.03 443.196 982.459 443.196C979.841 443.196 977.52 443.732 975.496 444.805C973.472 445.878 971.895 447.488 970.764 449.634C969.693 451.72 969.157 454.373 969.157 457.592V481.733H957.998V433.986H968.622V446.862L966.747 442.928C968.413 439.888 970.824 437.563 973.978 435.953C977.192 434.284 980.882 433.45 985.048 433.45Z" fill="white"/>
<path d="M932.192 481.733V433.986H943.351V481.733H932.192ZM937.816 426.118C935.733 426.118 934.007 425.462 932.638 424.151C931.329 422.839 930.674 421.26 930.674 419.412C930.674 417.504 931.329 415.924 932.638 414.673C934.007 413.361 935.733 412.706 937.816 412.706C939.899 412.706 941.596 413.331 942.905 414.583C944.274 415.775 944.958 417.295 944.958 419.143C944.958 421.111 944.304 422.78 942.994 424.151C941.685 425.462 939.959 426.118 937.816 426.118Z" fill="white"/>
<path d="M898.127 433.45C901.936 433.45 905.329 434.195 908.305 435.685C911.34 437.175 913.721 439.47 915.447 442.57C917.172 445.61 918.035 449.544 918.035 454.373V481.733H906.876V455.803C906.876 451.571 905.864 448.412 903.841 446.325C901.877 444.239 899.109 443.196 895.538 443.196C892.919 443.196 890.598 443.732 888.575 444.805C886.551 445.878 884.974 447.488 883.843 449.634C882.772 451.72 882.236 454.373 882.236 457.592V481.733H871.077V433.986H881.701V446.862L879.826 442.928C881.492 439.888 883.903 437.563 887.057 435.953C890.271 434.284 893.961 433.45 898.127 433.45Z" fill="white"/>
<path d="M846.221 481.733V472.077L845.596 470.02V453.121C845.596 449.842 844.614 447.309 842.65 445.521C840.686 443.673 837.71 442.749 833.722 442.749C831.044 442.749 828.395 443.166 825.777 444.001C823.217 444.835 821.045 445.998 819.26 447.488L814.885 439.351C817.444 437.384 820.48 435.924 823.991 434.97C827.562 433.956 831.252 433.45 835.061 433.45C841.965 433.45 847.292 435.119 851.041 438.457C854.851 441.735 856.755 446.832 856.755 453.747V481.733H846.221ZM831.222 482.359C827.651 482.359 824.527 481.763 821.849 480.571C819.17 479.319 817.087 477.62 815.599 475.474C814.171 473.269 813.457 470.795 813.457 468.053C813.457 465.371 814.082 462.956 815.331 460.81C816.641 458.665 818.754 456.966 821.67 455.714C824.586 454.462 828.455 453.836 833.276 453.836H847.113V461.258H834.079C830.27 461.258 827.711 461.883 826.402 463.135C825.092 464.327 824.438 465.818 824.438 467.606C824.438 469.633 825.241 471.242 826.848 472.434C828.455 473.627 830.687 474.223 833.544 474.223C836.281 474.223 838.722 473.597 840.864 472.345C843.066 471.093 844.643 469.245 845.596 466.801L847.47 473.507C846.399 476.309 844.465 478.485 841.668 480.035C838.93 481.584 835.448 482.359 831.222 482.359Z" fill="white"/>
<path d="M785.03 482.359C779.733 482.359 775.09 481.316 771.103 479.23C767.175 477.084 764.11 474.163 761.907 470.467C759.765 466.771 758.693 462.569 758.693 457.86C758.693 453.091 759.735 448.889 761.818 445.252C763.961 441.557 766.877 438.666 770.567 436.579C774.317 434.493 778.572 433.45 783.333 433.45C787.976 433.45 792.112 434.463 795.743 436.49C799.373 438.517 802.23 441.378 804.313 445.074C806.396 448.769 807.438 453.121 807.438 458.128C807.438 458.605 807.408 459.141 807.348 459.738C807.348 460.334 807.319 460.9 807.259 461.436H767.532V454.015H801.367L796.993 456.34C797.052 453.598 796.487 451.184 795.296 449.097C794.106 447.011 792.469 445.372 790.386 444.179C788.363 442.987 786.012 442.391 783.333 442.391C780.596 442.391 778.185 442.987 776.102 444.179C774.079 445.372 772.472 447.041 771.281 449.187C770.15 451.273 769.585 453.747 769.585 456.608V458.396C769.585 461.258 770.24 463.791 771.549 465.996C772.858 468.202 774.703 469.901 777.084 471.093C779.465 472.285 782.203 472.881 785.297 472.881C787.976 472.881 790.386 472.464 792.529 471.63C794.671 470.795 796.576 469.484 798.242 467.695L804.224 474.58C802.081 477.084 799.373 479.021 796.1 480.392C792.886 481.704 789.196 482.359 785.03 482.359Z" fill="white"/>
<path d="M736.816 481.734V415.388H747.975V481.734H736.816Z" fill="white"/>
<path d="M701.948 482.628C697.187 482.628 692.753 481.853 688.646 480.303C684.599 478.694 681.058 476.458 678.022 473.597C675.046 470.676 672.725 467.249 671.059 463.314C669.392 459.38 668.559 455.088 668.559 450.439C668.559 445.789 669.392 441.497 671.059 437.563C672.725 433.629 675.076 430.231 678.112 427.37C681.147 424.449 684.688 422.214 688.735 420.664C692.782 419.054 697.216 418.25 702.037 418.25C707.156 418.25 711.828 419.144 716.053 420.932C720.279 422.661 723.85 425.254 726.766 428.711L719.267 435.775C717.006 433.331 714.476 431.513 711.679 430.32C708.882 429.069 705.846 428.443 702.573 428.443C699.299 428.443 696.294 428.979 693.556 430.052C690.878 431.125 688.527 432.645 686.503 434.612C684.539 436.579 682.992 438.904 681.861 441.587C680.79 444.269 680.254 447.22 680.254 450.439C680.254 453.658 680.79 456.608 681.861 459.291C682.992 461.973 684.539 464.298 686.503 466.265C688.527 468.232 690.878 469.752 693.556 470.825C696.294 471.898 699.299 472.435 702.573 472.435C705.846 472.435 708.882 471.838 711.679 470.646C714.476 469.394 717.006 467.517 719.267 465.013L726.766 472.166C723.85 475.564 720.279 478.157 716.053 479.945C711.828 481.734 707.126 482.628 701.948 482.628Z" fill="white"/>
</svg>
