<svg width="569" height="629" viewBox="0 0 569 629" fill="none" xmlns="http://www.w3.org/2000/svg">
<path fill-rule="evenodd" clip-rule="evenodd" d="M278.059 0.425644C276.684 0.658644 270.834 1.92764 265.059 3.24564C259.284 4.56264 244.209 7.94564 231.559 10.7616C206.235 16.3996 172.344 24.1336 141.559 31.3016C130.559 33.8626 119.084 36.5276 116.059 37.2246C107.417 39.2136 38.743 54.6726 26.815 57.3136C10.622 60.8986 4.79601 65.7576 1.57001 78.3686L0 84.5086L0.323013 210.369L0.646011 336.229L2.832 350.229C8.511 386.61 19.085 417.488 35.877 446.729C60.532 489.662 93.273 524.239 140.34 557.051C156.239 568.135 188.76 587.521 205.059 595.631C228.685 607.387 259.91 621.199 272.753 625.576C286.095 630.124 289.355 629.711 312.251 620.573C379.591 593.696 439.628 555.816 482.43 513.2C502.068 493.647 514.5 478.017 527.743 456.229C547.782 423.259 558.636 394.347 566.224 353.729L568.559 341.229V209.229V77.2286L565.453 71.7286C563.381 68.0606 560.868 65.3066 557.908 63.4616C553.469 60.6946 539.115 56.7656 513.559 51.3226C506.959 49.9166 490.984 46.3206 478.059 43.3306C429.084 32.0026 402.196 25.7506 391.559 23.2166C385.509 21.7756 372.909 18.8586 363.559 16.7346C354.209 14.6106 333.734 9.91965 318.059 6.30965C291.836 0.270647 284.946 -0.743356 278.059 0.425644ZM264.559 25.8116C255.759 27.9606 229.884 34.0486 207.059 39.3416C166.537 48.7366 152.841 51.9406 136.559 55.8316C132.159 56.8836 125.859 58.3576 122.559 59.1066C119.259 59.8556 96.759 65.0316 72.559 70.6076C48.359 76.1836 27.596 80.9626 26.42 81.2286C25.243 81.4936 24.035 82.7276 23.736 83.9696C23.436 85.2126 22.883 120.654 22.507 162.729L21.823 239.229L32.691 228.672C60.248 201.902 77.782 192.559 120.809 181.722C123.366 181.078 125.059 180.074 125.059 179.2C125.059 178.401 126.9 172.906 129.15 166.989L133.242 156.23L129.717 143.229C127.779 136.079 125.713 127.559 125.126 124.295C123.642 116.044 123.814 100.24 125.454 94.0787C131.127 72.7707 152.065 59.1156 178.618 59.4056C190.029 59.5296 198.438 61.3726 208.28 65.9036L215 68.9976L220.916 75.1576C224.874 79.2796 227.433 83.0117 228.649 86.4387L230.468 91.5586L238.513 92.6826C252.781 94.6766 263.456 96.7356 267.809 98.3336L272.059 99.8936V103.239V106.584L269.506 108.592C266.274 111.134 254.52 115.064 241.031 118.111L230.559 120.477L230.67 126.02L230.78 131.564L235.477 141.219C238.711 147.867 240.079 151.857 239.867 154.027L239.559 157.179L234.559 159.002C231.809 160.006 229.013 161.543 228.346 162.418C227.679 163.294 226.374 167.434 225.446 171.62C224.519 175.805 222.952 181.119 221.966 183.43L220.172 187.631L216.027 189.745C213.595 190.986 208.992 192.102 204.89 192.446C200.907 192.78 197.287 193.644 196.479 194.452C193.762 197.169 194.812 200.427 199.697 204.429C212.211 214.682 220.781 222.332 222.889 225.134C229.144 233.442 235.571 250.815 243.642 281.229C246.124 290.579 248.388 299.017 248.674 299.979C248.96 300.941 249.857 301.729 250.667 301.729C251.477 301.729 263.484 297.179 277.35 291.617C291.215 286.055 303.117 281.284 303.798 281.014C304.48 280.744 305.498 278.811 306.062 276.718C307.577 271.092 312.055 267.836 328.133 260.667L342.559 254.234L349.559 254.442C353.409 254.556 358.134 254.737 360.059 254.844L363.559 255.038L398.296 240.133C417.401 231.936 433.039 224.912 433.046 224.525C433.06 223.772 428.079 219.978 417.558 212.729C413.965 210.254 410.774 207.272 410.465 206.102C409.934 204.09 417.076 183.827 419.319 180.979C419.861 180.292 421.728 179.729 423.469 179.729H426.634L469.096 208.201C492.451 223.861 513.021 238.047 514.809 239.727C518.489 243.185 518.864 245.513 516.258 248.732L514.457 250.956L506.508 251.788C502.136 252.246 495.184 252.645 491.059 252.674L483.559 252.727L477.119 249.681C473.577 248.005 467.464 244.63 463.535 242.182C459.606 239.733 455.865 237.729 455.222 237.729C454.579 237.729 447.417 240.823 439.306 244.605C431.195 248.387 419.834 253.593 414.059 256.173C404.227 260.566 399.812 262.567 377.964 272.535L369.368 276.457L368.791 284.088C368.393 289.347 367.49 293.042 365.886 295.974L363.559 300.229L355.71 305.229C348.421 309.872 314.696 334.674 295.059 349.833C257.032 379.188 251.255 382.798 241.126 383.531L235.427 383.943L230.131 381.664C223.59 378.851 218.906 373.2 212.525 360.428C209.997 355.369 207.556 350.849 207.1 350.385C206.644 349.921 205.741 352.846 205.094 356.885C204.446 360.924 202.413 372.104 200.576 381.729C198.739 391.354 196.681 402.738 196.003 407.028L194.769 414.827L203.567 433.528C208.407 443.813 222.199 471.804 234.218 495.729L256.071 539.229L257.068 544.729C257.616 547.754 259.396 559.904 261.024 571.729C262.652 583.554 264.365 594.579 264.831 596.229L265.677 599.229L272.618 602.729L279.559 606.229L285.059 606.166L290.559 606.103L302.559 601.016C319.153 593.98 342.475 582.697 362.059 572.229C371.134 567.378 383.037 561.013 388.509 558.083C393.982 555.154 399.108 552.108 399.901 551.315L401.344 549.873L397.779 549.204C395.238 548.728 364.479 549.134 361.309 549.685C361.171 549.709 361.059 550.751 361.059 552.001C361.059 556.677 357.179 568.214 355.017 569.964L352.837 571.729H345.948H339.059L336.961 569.631L334.862 567.532L335.556 558.772L336.249 550.012L330.998 549.315C328.109 548.932 324.52 547.985 323.022 547.21C319.202 545.235 315.321 540.334 314.103 535.948C313.485 533.724 313.068 518.43 313.065 497.903L313.059 463.578L310.357 461.403C302.872 455.38 298.196 449.712 296.087 444.106L293.876 438.229L294.232 427.729L294.587 417.229L298.152 410.729C302.23 403.293 308.737 397.726 316.559 394.983L321.559 393.229H346.757H371.954L372.568 386.729C375.724 353.312 379.976 340.644 392.036 328.729C398.856 321.992 409.877 316.241 419.941 314.168L427.323 312.647L480.441 312.97L533.559 313.293L538.559 314.919C541.309 315.814 544.572 316.864 545.809 317.254L548.059 317.962V206.992C548.059 145.959 547.766 93.2186 547.408 89.7936L546.757 83.5646L544.395 82.6666C543.096 82.1726 520.777 76.8296 494.796 70.7926C439.941 58.0456 372.738 42.1566 306.559 26.2856C296.109 23.7796 285.984 21.7686 284.059 21.8166C282.134 21.8646 273.359 23.6626 264.559 25.8116ZM433.781 110.229C433.466 111.329 432.926 113.639 432.58 115.362C431.722 119.637 426.047 126.012 421.394 127.926C419.285 128.793 416.434 129.956 415.059 130.51L412.559 131.517L414.059 132.009C414.884 132.279 417.411 133.002 419.674 133.614C421.937 134.227 425.031 135.705 426.549 136.9C429.551 139.261 433.002 145.921 433.037 149.42C433.08 153.755 434.913 152.638 435.989 147.62C436.593 144.803 438.019 141.19 439.157 139.591C441.514 136.282 447.894 132.68 453.059 131.743L456.559 131.108L450.743 129.371C447.377 128.366 443.447 126.279 441.416 124.417L437.905 121.2L436.129 114.715L434.354 108.229L433.781 110.229ZM372.799 122.479C370.621 132.167 366.378 141.256 361.982 145.652C358.053 149.581 349.825 153.689 340.581 156.336C336.994 157.364 334.059 158.458 334.059 158.769C334.059 159.08 337.195 160.314 341.027 161.512C361.244 167.828 369.455 176.476 373.279 195.479C373.86 198.366 374.651 200.729 375.038 200.729C375.424 200.729 376.281 198.315 376.941 195.364C378.939 186.437 384.233 176.626 389.602 171.9C394.933 167.208 404.019 162.512 411.309 160.683C413.921 160.028 416.059 159.202 416.059 158.848C416.059 158.494 413.168 157.376 409.635 156.364C400.095 153.632 393.72 150.379 388.53 145.596C381.902 139.486 379.021 132.94 376.597 118.479C376.251 116.417 375.647 114.729 375.255 114.729C374.862 114.729 373.757 118.217 372.799 122.479ZM189.672 126.505C185.725 134.296 183.027 134.598 174.275 128.229C168.045 123.696 164.649 122.808 161.004 124.759C156.419 127.213 154.545 136.547 157.074 144.338C158.949 150.116 161.673 153.446 165.576 154.735C171.718 156.762 170.181 159.348 160.18 163.816L152.802 167.112L148.958 175.06C146.844 179.432 145.422 183.509 145.799 184.119C146.176 184.73 151.854 191.898 158.416 200.049L170.348 214.869L171.616 213.549C173.865 211.208 183.059 193.129 183.059 191.047C183.059 189.938 181.484 186.062 179.559 182.435C176.095 175.907 175.237 172.729 176.938 172.729C177.422 172.729 180.234 173.833 183.188 175.182C195.341 180.732 206.937 182.186 211.352 178.713C214.155 176.508 215.064 174.125 217.548 162.465L219.202 154.7L222.63 151.965C226.415 148.945 226.804 147.07 224.55 142.711C223.629 140.93 222.947 136.469 222.8 131.261L222.559 122.729L209.559 122.716C202.409 122.708 195.577 122.438 194.376 122.116L192.193 121.531L189.672 126.505ZM344.623 266.058L342.805 267.388L345.581 271.583C348.796 276.441 349.964 284.169 348.03 287.783L346.775 290.129L342.85 282.184C338.862 274.11 336.492 270.729 334.822 270.729C333.16 270.729 319.606 276.92 317.809 278.5C315.622 280.423 315.505 286.467 317.559 291.383C320.838 299.231 320.368 299.777 304.836 306.147C278.234 317.057 255.644 326.744 254.772 327.616C253.379 329.009 255.456 336.316 260.133 346.479L263.929 354.729L266.744 354.692L269.559 354.654L304.059 328.696C323.034 314.419 341.836 301.063 345.84 299.015C349.845 296.967 354.113 294.236 355.324 292.947L357.527 290.602L357.898 283.249C358.102 279.203 357.74 274.291 357.092 272.328C355.017 266.041 348.872 262.952 344.623 266.058ZM461.223 269.229C458.9 275.384 457.422 277.181 452.669 279.627L447.793 282.136L451.768 283.825C456.28 285.741 459.935 289.861 460.754 293.952C461.34 296.885 463.059 297.807 463.059 295.189C463.059 291.486 466.993 286.062 470.985 284.262C475.352 282.293 476.286 280.729 473.094 280.729C469.677 280.729 464.245 275.036 463.253 270.416L462.355 266.229L461.223 269.229ZM61.679 294.294C54.738 300.706 49.059 306.349 49.059 306.833C49.059 307.686 66.001 321.643 67.106 321.701C67.758 321.735 75.232 283.569 74.681 283.018C74.472 282.808 68.621 287.883 61.679 294.294ZM422.757 327.825C415.475 329.538 408.394 333.697 402.835 339.525C392.476 350.385 389.593 359.852 387.479 389.944L386.867 398.658L390.426 403.001C392.383 405.39 394.891 409.343 396 411.786L398.015 416.229L398.037 430.979L398.059 445.729H440.498H482.936L483.511 440.979C485.59 423.774 488.067 416.584 494.506 409.062C501.341 401.077 513.357 395.46 526.779 393.977L533.552 393.229L535.73 387.229C540.46 374.199 546.884 341.153 545.646 336.219C544.97 333.525 537.715 330.05 528.897 328.195L521.928 326.729L474.244 326.829C448.017 326.885 424.848 327.332 422.757 327.825ZM165.809 345.287L141.059 357.737L141.065 359.983C141.068 361.218 141.545 363.938 142.125 366.027L143.18 369.825L145.369 369.146C148.953 368.035 194.585 344.465 196.315 342.831C197.646 341.574 194.035 332.724 192.215 332.783C191.304 332.812 179.422 338.439 165.809 345.287ZM350.059 344.194C350.059 346.379 344.245 352.586 340.305 354.607L336.852 356.378L341.279 358.069C346.023 359.881 349.234 363.402 350.544 368.229L351.358 371.229L352.508 367.374C353.954 362.527 357.124 359.193 361.731 357.672L365.314 356.49L360.437 353.859L355.559 351.229L353.559 347.015C351.524 342.729 350.059 341.548 350.059 344.194ZM97.37 359.599C78.227 369.285 74.059 371.914 74.059 374.302C74.059 376.004 79.224 379.024 86.773 381.737C93.794 384.261 94.848 385.506 97.983 394.968C99.21 398.675 100.675 401.991 101.237 402.339C101.799 402.686 103.426 402.099 104.853 401.034L107.447 399.097L107.173 388.913C107.017 383.1 107.299 378.729 107.831 378.729C108.342 378.729 110.153 381.879 111.853 385.729L114.945 392.729H116.92C118.007 392.729 119.607 392.456 120.477 392.122L122.059 391.515L122.015 385.872C121.991 382.768 121.603 378.321 121.151 375.989L120.331 371.748L121.858 370.489C122.792 369.718 123.528 369.617 123.755 370.229C123.959 370.779 125.361 374.154 126.87 377.729L129.613 384.229L131.773 384.54C133.213 384.748 134.503 383.981 135.644 382.24L137.355 379.628L134.589 371.428C129.364 355.945 125.019 349.667 119.622 349.81C117.859 349.856 108.413 354.012 97.37 359.599ZM25.596 352.479C25.789 353.441 26.475 357.379 27.12 361.229C28.122 367.205 30.994 378.564 35.4 393.979C35.99 396.042 36.874 397.729 37.364 397.729C38.693 397.729 56.379 388.735 57.695 387.39C58.32 386.751 59.05 382.09 59.317 377.032L59.802 367.835L56.68 366.354C54.964 365.539 49.959 363.353 45.559 361.496C41.159 359.638 34.963 356.456 31.79 354.424C28.616 352.392 25.846 350.729 25.633 350.729C25.42 350.729 25.404 351.517 25.596 352.479ZM424.795 365.979C420.592 369.171 420.929 375.287 425.473 378.265L427.995 379.917L430.777 378.994C432.307 378.486 434.126 376.982 434.818 375.65C438.178 369.191 430.421 361.707 424.795 365.979ZM499.648 367.806C496.411 371.652 496.376 374.137 499.514 377.274C502.443 380.204 505.986 380.419 509.148 377.858L511.459 375.987V372.229V368.471L509.148 366.6C505.773 363.867 502.626 364.266 499.648 367.806ZM76.059 392.189C71.604 393.805 42.059 408.588 42.059 409.201C42.059 409.454 42.829 411.276 43.771 413.25L45.482 416.84L47.745 416.272C52.385 415.107 88.059 397.369 88.059 396.227C88.059 392.599 81.247 390.307 76.059 392.189ZM321.745 407.929C316.557 409.011 311.576 413.03 309.109 418.125L307.059 422.36V429.659V436.957L309.134 440.593C310.275 442.593 313.537 445.804 316.384 447.729C319.795 450.036 322.326 452.75 323.809 455.691L326.059 460.153V494.335V528.517L329.093 531.765L332.126 535.013L339.726 534.438C343.905 534.122 347.828 533.36 348.442 532.746L349.559 531.629V477.429V423.229L347.188 418.413C345.793 415.581 343.312 412.601 341.164 411.18C336.909 408.364 327.342 406.762 321.745 407.929ZM459.694 408.802L457.059 410.874V414.302C457.059 418.799 459.995 421.729 464.502 421.729H467.946L469.502 419.506C470.358 418.284 471.059 415.842 471.059 414.079V410.874L468.424 408.802C466.975 407.662 465.011 406.729 464.059 406.729C463.107 406.729 461.143 407.662 459.694 408.802ZM518.559 410.128C505.542 414.245 499.368 422.211 497.17 437.729C495.755 447.72 495.046 465.855 496.096 465.206C497.466 464.359 505.769 452.142 512.12 441.628C517.492 432.734 529.059 410.649 529.059 409.285C529.059 408.308 522.696 408.819 518.559 410.128ZM423.809 460.487L365.059 460.745V476.737V492.729H418.581H472.104L476.826 488.479C479.423 486.142 482.098 483.554 482.771 482.729C484.114 481.083 484.555 462.946 483.294 461.229C482.815 460.577 462.12 460.319 423.809 460.487ZM141.059 496.783C141.059 497.913 139.709 504.487 138.059 511.391C136.409 518.295 135.059 524.096 135.059 524.28C135.059 525.779 181.774 557.347 182.668 556.453C182.908 556.213 178.931 549.765 173.83 542.123C165.308 529.354 155.97 515.036 146.671 500.479C142.836 494.476 141.059 493.306 141.059 496.783ZM363.569 512.979C363.213 516.417 363.064 522.604 363.24 526.729L363.559 534.229L392.915 534.494L422.272 534.76L428.415 530.584C435.219 525.959 448.382 515.723 454.548 510.262L458.537 506.729H411.378H364.218L363.569 512.979Z" fill="#1A69A6"/>
</svg>
